# xmcd
#
# Track frame offsets:
#	150
#	51421
#	84557
#	92966
#	113960
#	165471
#	197282
#	225683
#	234875
#	270902
#	308854
#	339250
#
# Disc length: 4758 seconds
#
# Revision: 1
# Processed by: cddbd v1.5.2PL0 Copyright (c) Steve Scherf et al.
# Submitted via: audiograbber 1.83.01
#
DISCID=9012940c
DTITLE=Grateful Dead - 73-06-22A PNE Coliseum, Vancouver, Canada
DYEAR=1900
DGENRE=
TTITLE0=He's Gone
TTITLE1=Truckin'
TTITLE2=Nobody's Fault But Mine Jam
TTITLE3=Phil's Jam
TTITLE4=Jam
TTITLE5=The Other One
TTITLE6=Jam
TTITLE7=The Other One
TTITLE8=Wharf Rat
TTITLE9=Sugar Magnolia
TTITLE10=Casey Jones
TTITLE11=Johnny B Goode
EXTD=
EXTT0=
EXTT1=
EXTT2=
EXTT3=
EXTT4=
EXTT5=
EXTT6=
EXTT7=
EXTT8=
EXTT9=
EXTT10=
EXTT11=
PLAYORDER=
